<svg width="2775" height="2881" viewBox="0 0 2775 2881" fill="none" xmlns="http://www.w3.org/2000/svg">
<line x1="1432" y1="129" x2="2751" y2="129" stroke="black" stroke-width="100"/>
<line x1="1427" y1="1011" x2="2702" y2="1011" stroke="black" stroke-width="100"/>
<line x1="113" y1="1011" x2="1432" y2="1011" stroke="black" stroke-opacity="0.1" stroke-width="100"/>
<line x1="1432" y1="1884" x2="2651" y2="1884" stroke="black" stroke-opacity="0.1" stroke-width="100"/>
<line x1="2092" y1="564" x2="2746" y2="564" stroke="black" stroke-width="100"/>
<line x1="1437" y1="394" x2="1437" y2="1021" stroke="black" stroke-width="100"/>
<line x1="1437" y1="1274" x2="1437" y2="2735" stroke="black" stroke-width="100"/>
<line y1="-50" x2="712.113" y2="-50" transform="matrix(0.807554 0.589794 -0.511484 0.859293 2051.93 1044)" stroke="black" stroke-width="100"/>
<line x1="208.539" y1="182.268" x2="799.539" y2="572.268" stroke="black" stroke-width="100"/>
<line y1="-50" x2="793.08" y2="-50" transform="matrix(0.834648 -0.550783 -0.550783 -0.834648 718 531)" stroke="black" stroke-width="100"/>
<line y1="-50" x2="724.261" y2="-50" transform="matrix(0.80772 -0.589566 -0.51126 -0.859426 2042 1851)" stroke="black" stroke-width="100"/>
<line x1="1427" y1="1884" x2="2098" y2="1884" stroke="black" stroke-width="100"/>
<line x1="212" y1="1884" x2="1387" y2="1884" stroke="black" stroke-opacity="0.1" stroke-width="100"/>
<line x1="1449" y1="2685" x2="2746" y2="2685" stroke="black" stroke-width="100"/>
<line x1="162" y1="133" x2="162" y2="1054" stroke="black" stroke-width="100"/>
<line x1="2701" y1="514" x2="2701" y2="1061" stroke="black" stroke-width="100"/>
<path d="M112 61.0002L248 148H112V61.0002Z" fill="black"/>
<rect x="112" y="148" width="136" height="43" fill="black"/>
<path d="M1510.35 79.1697L1281 159.737L1398.5 79.1697L1510.35 79.1697Z" fill="black"/>
<rect x="1371" y="101" width="78" height="78" fill="black"/>
<rect x="104" y="2655" width="142" height="80" fill="black"/>
<line y1="-50" x2="2108.21" y2="-50" transform="matrix(0.597188 -0.802101 -0.802101 -0.597188 159 2673)" stroke="black" stroke-width="100"/>
<rect x="276.982" y="2682" width="116.806" height="160.482" transform="rotate(36.7332 276.982 2682)" fill="white"/>
<rect x="95.9824" y="2562" width="116.806" height="160.482" transform="rotate(36.7332 95.9824 2562)" fill="white"/>
<rect width="142" height="80" transform="matrix(-1 0 0 1 1504 2655)" fill="black"/>
<line x1="1408.89" y1="2702.86" x2="149.895" y2="1011.86" stroke="black" stroke-width="100"/>
<rect width="116.806" height="160.482" transform="matrix(-0.801429 0.59809 0.59809 0.801429 1331.02 2682)" fill="white"/>
<path d="M2627.32 1544.68L2625.56 1340.44L2774.13 1447.41L2627.32 1544.68Z" fill="black"/>
<line x1="162" y1="1054" x2="162" y2="2735" stroke="black" stroke-opacity="0.1" stroke-width="100"/>
<line x1="2701" y1="154" x2="2701" y2="2742" stroke="black" stroke-opacity="0.1" stroke-width="100"/>
<line x1="1437" y1="154" x2="1437" y2="2702" stroke="black" stroke-opacity="0.1" stroke-width="100"/>
<line x1="190" y1="2685" x2="1465" y2="2685" stroke="black" stroke-opacity="0.1" stroke-width="100"/>
</svg>
